<?xml version="1.0" encoding="UTF-8"?>
<svg width="1427px" height="594px" viewBox="0 0 1427 594" version="1.1" xmlns="http://www.w3.org/2000/svg" xmlns:xlink="http://www.w3.org/1999/xlink">
    <title>Brand Element</title>
    <defs>
        <polyline id="path-1" points="1426.80561 148.6282 1169.44425 0.336744665 1038.43871 75.5686028 1038.04645 75.3394412 258.217631 523.584392 61.5179742 410.240088 61.5179742 183.603996 197.555933 105.211616 197.555933 410.507443 258.217631 445.468916 258.217631 70.3122076 258.16501 70.2883366 258.217631 70.2549172 318.874545 105.326197 318.874545 411.543444 379.531458 374.266484 379.531458 140.397477 440.193156 175.468757 440.193156 336.984749 500.85007 299.707788 500.85007 210.540037 575.614022 253.760878 634.328766 217.682242 258.217631 0.355841469 197.575068 35.298218 197.555933 35.2886696 0.861060292 148.609103 0.861060292 445.23498 197.555933 558.555413 197.575068 558.545865 258.217631 593.488242 413.227618 504.373007 1169.44904 70.2358204 1366.14391 183.584899 1366.14391 410.259184 1169.58776 523.522327 851.703437 340.355334 791.046523 375.307259 1169.44425 593.345016 1169.44425 593.507338 1169.58776 593.426177 1169.72649 593.507338 1169.72649 593.345016 1426.80561 445.215884 1426.80561 148.6282"></polyline>
        <polyline id="path-3" points="62.7957333 175.632448 62.7957333 21.3073293 37.6038278 0.454277261 0.249131313 21.3073293 0.249131313 277.559814 37.6038278 298.422507 62.7957333 277.559814 62.7957333 175.632448"></polyline>
        <polyline id="path-5" points="62.6734347 78.6465312 62.6734347 36.3039305 0.126832634 0.523420497 0.126832634 222.689482 62.6734347 186.908972 62.6734347 78.6465312"></polyline>
        <polyline id="path-7" points="63.2672666 72.0542162 63.2672666 0.116369643 0.324521386 35.8326177 0.324521386 169.870821 63.2672666 205.582256 63.2672666 72.0542162"></polyline>
    </defs>
    <g id="Symbols" stroke="none" stroke-width="1" fill="none" fill-rule="evenodd" opacity="0.299014137">
        <g id="mainAction/banner" transform="translate(-239.000000, 79.000000)">
            <g id="Brand-Element" transform="translate(239.000000, -79.000000)">
                <g id="Group-3">
                    <mask id="mask-2" fill="white">
                        <use xlink:href="#path-1"></use>
                    </mask>
                    <g id="Clip-2"></g>
                    <polyline id="Fill-1" stroke="#FFFFFF" mask="url(#mask-2)" points="1426.80561 148.6282 1169.44425 0.336744665 1038.43871 75.5686028 1038.04645 75.3394412 258.217631 523.584392 61.5179742 410.240088 61.5179742 183.603996 197.555933 105.211616 197.555933 410.507443 258.217631 445.468916 258.217631 70.3122076 258.16501 70.2883366 258.217631 70.2549172 318.874545 105.326197 318.874545 411.543444 379.531458 374.266484 379.531458 140.397477 440.193156 175.468757 440.193156 336.984749 500.85007 299.707788 500.85007 210.540037 575.614022 253.760878 634.328766 217.682242 258.217631 0.355841469 197.575068 35.298218 197.555933 35.2886696 0.861060292 148.609103 0.861060292 445.23498 197.555933 558.555413 197.575068 558.545865 258.217631 593.488242 413.227618 504.373007 1169.44904 70.2358204 1366.14391 183.584899 1366.14391 410.259184 1169.58776 523.522327 851.703437 340.355334 791.046523 375.307259 1169.44425 593.345016 1169.44425 593.507338 1169.58776 593.426177 1169.72649 593.507338 1169.72649 593.345016 1426.80561 445.215884 1426.80561 148.6282"></polyline>
                </g>
                <g id="Group-6" transform="translate(1130.000000, 143.000000)">
                    <mask id="mask-4" fill="white">
                        <use xlink:href="#path-3"></use>
                    </mask>
                    <g id="Clip-5"></g>
                    <polyline id="Fill-4" stroke="#FFFFFF" mask="url(#mask-4)" points="62.7957333 175.632448 62.7957333 21.3073293 37.6038278 0.454277261 0.249131313 21.3073293 0.249131313 277.559814 37.6038278 298.422507 62.7957333 277.559814 62.7957333 175.632448"></polyline>
                </g>
                <g id="Group-9" transform="translate(1238.000000, 181.000000)">
                    <mask id="mask-6" fill="white">
                        <use xlink:href="#path-5"></use>
                    </mask>
                    <g id="Clip-8"></g>
                    <polyline id="Fill-7" stroke="#FFFFFF" mask="url(#mask-6)" points="62.6734347 78.6465312 62.6734347 36.3039305 0.126832634 0.523420497 0.126832634 222.689482 62.6734347 186.908972 62.6734347 78.6465312"></polyline>
                </g>
                <g id="Group-12" transform="translate(1025.000000, 192.000000)">
                    <mask id="mask-8" fill="white">
                        <use xlink:href="#path-7"></use>
                    </mask>
                    <g id="Clip-11"></g>
                    <polyline id="Fill-10" stroke="#FFFFFF" mask="url(#mask-8)" points="63.2672666 72.0542162 63.2672666 0.116369643 0.324521386 35.8326177 0.324521386 169.870821 63.2672666 205.582256 63.2672666 72.0542162"></polyline>
                </g>
            </g>
        </g>
    </g>
</svg>